# xmcd CD database file
#
# Track frame offsets:
#	150
#	24002
#	41055
#	63385
#	88075
#	105017
#
# Disc length: 1702 seconds
#
# Revision: 4
# Processed by: cddbd v1.5PL3 Copyright (c) Steve Scherf et al.
# Submitted via: CDex 1.51
#
DISCID=3a06a406
DTITLE=西脇唯 - それはひとつしかなくて
DYEAR=1900
DGENRE=
TTITLE0=忘れない
TTITLE1=休日
TTITLE2=“彼女”になりたかった日
TTITLE3=それはひとつしかなくて
TTITLE4=Angel Field
TTITLE5=あなたのいるBIRTHDAY
EXTD=
EXTT0=
EXTT1=
EXTT2=
EXTT3=
EXTT4=
EXTT5=
PLAYORDER=
